<?xml version="1.0" encoding="utf-8"?>
<!-- Generator: Adobe Illustrator 16.0.0, SVG Export Plug-In . SVG Version: 6.00 Build 0)  -->
<!DOCTYPE svg PUBLIC "-//W3C//DTD SVG 1.1//EN" "http://www.w3.org/Graphics/SVG/1.1/DTD/svg11.dtd">
<svg version="1.1" id="Layer_1" xmlns="http://www.w3.org/2000/svg" xmlns:xlink="http://www.w3.org/1999/xlink" x="0px" y="0px"
	 width="160px" height="40px" viewBox="0 0 160 40" enable-background="new 0 0 160 40" xml:space="preserve">
<g>
	<path fill="#F85D5D" d="M4.765,8.89c0-0.951,0.178-1.855,0.535-2.713c0.357-0.858,0.852-1.609,1.485-2.258
		c0.634-0.646,1.373-1.168,2.218-1.564c0.845-0.396,1.743-0.594,2.693-0.594c0.422,0,0.759,0.119,1.01,0.355
		c0.251,0.238,0.376,0.529,0.376,0.873c0,0.342-0.119,0.633-0.356,0.871c-0.238,0.236-0.528,0.355-0.872,0.355
		c-0.634,0-1.234,0.125-1.802,0.377c-0.568,0.25-1.062,0.588-1.485,1.01C8.144,6.024,7.814,6.52,7.577,7.086
		C7.339,7.655,7.221,8.257,7.221,8.89v18.973c0,0.633,0.119,1.234,0.356,1.801c0.237,0.568,0.567,1.064,0.99,1.486
		c0.422,0.422,0.917,0.758,1.485,1.01c0.567,0.25,1.168,0.377,1.802,0.377c0.343,0,0.634,0.119,0.872,0.355
		c0.238,0.236,0.356,0.527,0.356,0.873c0,0.342-0.119,0.633-0.356,0.869c-0.238,0.236-0.528,0.355-0.872,0.355
		c-0.977,0-1.895-0.188-2.752-0.557c-0.858-0.369-1.611-0.877-2.258-1.521c-0.647-0.646-1.155-1.408-1.525-2.279
		c-0.37-0.869-0.554-1.795-0.554-2.771v-8.237H2.547c-0.343,0-0.634-0.119-0.872-0.357c-0.237-0.236-0.356-0.527-0.356-0.871
		c0-0.342,0.119-0.633,0.356-0.871c0.238-0.238,0.528-0.357,0.872-0.357h2.218V8.89z"/>
	<path fill="#FFFFFF" d="M15.776,6.948c0-0.342,0.119-0.633,0.356-0.871c0.237-0.236,0.528-0.355,0.871-0.355
		c0.343,0,0.634,0.119,0.872,0.355c0.237,0.238,0.356,0.529,0.356,0.871v6.654c0.607-0.527,1.307-0.949,2.099-1.268
		c0.792-0.316,1.637-0.475,2.535-0.475c0.977,0,1.901,0.186,2.773,0.555c0.871,0.369,1.63,0.879,2.277,1.525
		c0.646,0.646,1.155,1.406,1.525,2.277c0.369,0.871,0.554,1.795,0.554,2.771V29.8c0,0.345-0.119,0.636-0.356,0.873
		c-0.237,0.236-0.528,0.354-0.871,0.354c-0.344,0-0.634-0.118-0.872-0.354c-0.238-0.237-0.356-0.528-0.356-0.873V18.989
		c0-0.633-0.125-1.234-0.376-1.801c-0.251-0.568-0.588-1.063-1.01-1.486c-0.423-0.422-0.918-0.752-1.485-0.99
		c-0.568-0.238-1.168-0.355-1.802-0.355c-0.633,0-1.228,0.117-1.782,0.355c-0.554,0.238-1.043,0.555-1.465,0.951
		c-0.423,0.396-0.752,0.865-0.99,1.406c-0.238,0.541-0.37,1.115-0.396,1.723v11.01c0,0.371-0.113,0.669-0.337,0.894
		c-0.225,0.226-0.521,0.337-0.891,0.337c-0.343,0-0.627-0.119-0.852-0.355c-0.225-0.237-0.35-0.528-0.376-0.872L15.776,6.948
		L15.776,6.948z"/>
	<path fill="#FFFFFF" d="M48.333,27.427c-0.872,0.978-1.921,1.814-3.149,2.515c-1.228,0.701-2.555,1.052-3.98,1.052
		c-1.321,0-2.555-0.238-3.704-0.714c-1.148-0.478-2.158-1.135-3.03-1.979c-0.872-0.845-1.558-1.848-2.06-3.01
		s-0.752-2.431-0.752-3.804c0-1.319,0.244-2.567,0.732-3.743c0.488-1.174,1.162-2.197,2.02-3.068
		c0.858-0.871,1.875-1.559,3.05-2.061c1.175-0.5,2.449-0.752,3.822-0.752c1.268,0,2.476,0.258,3.624,0.771
		c1.149,0.516,2.159,1.209,3.03,2.08s1.564,1.889,2.079,3.051c0.515,1.162,0.772,2.402,0.772,3.722v8.356
		c0,0.345-0.119,0.634-0.356,0.871c-0.237,0.238-0.528,0.354-0.872,0.354c-0.344,0-0.633-0.116-0.871-0.354
		c-0.238-0.237-0.356-0.526-0.356-0.871L48.333,27.427L48.333,27.427z M48.333,21.484c0-0.978-0.185-1.901-0.555-2.772
		c-0.37-0.871-0.878-1.629-1.525-2.277c-0.647-0.646-1.406-1.154-2.277-1.523c-0.872-0.371-1.796-0.555-2.772-0.555
		c-0.977,0-1.895,0.184-2.753,0.555c-0.858,0.369-1.611,0.877-2.257,1.523c-0.647,0.648-1.156,1.406-1.525,2.277
		c-0.37,0.871-0.555,1.797-0.555,2.772c0,0.977,0.185,1.896,0.555,2.752c0.369,0.859,0.877,1.611,1.525,2.259
		c0.646,0.647,1.399,1.155,2.257,1.524c0.858,0.369,1.776,0.556,2.753,0.556c0.951,0,1.848-0.179,2.693-0.535
		c0.845-0.354,1.59-0.853,2.238-1.483c0.646-0.636,1.162-1.382,1.544-2.238C48.061,23.461,48.28,22.516,48.333,21.484z"/>
	<path fill="#FFFFFF" d="M53.047,16.812c0-0.924,0.185-1.703,0.555-2.338c0.369-0.633,0.857-1.148,1.465-1.543
		c0.607-0.396,1.294-0.68,2.06-0.852s1.531-0.258,2.298-0.258c0.634,0,1.307,0.072,2.02,0.217c0.713,0.146,1.373,0.363,1.98,0.654
		c0.607,0.291,1.109,0.646,1.505,1.068c0.396,0.424,0.595,0.926,0.595,1.506c0,0.291-0.1,0.574-0.297,0.852
		c-0.198,0.277-0.522,0.416-0.971,0.416c-0.502,0-0.885-0.291-1.148-0.871c-0.238-0.502-0.7-0.877-1.387-1.129
		c-0.687-0.25-1.452-0.377-2.297-0.377c-0.449,0-0.905,0.033-1.366,0.1c-0.463,0.066-0.879,0.197-1.248,0.396
		c-0.37,0.197-0.68,0.469-0.931,0.811c-0.251,0.344-0.376,0.793-0.376,1.348c0,0.396,0.125,0.74,0.376,1.029
		c0.251,0.291,0.567,0.535,0.95,0.732c0.383,0.199,0.806,0.352,1.268,0.457s0.904,0.197,1.327,0.277
		c0.977,0.158,1.895,0.389,2.753,0.691c0.857,0.305,1.61,0.693,2.257,1.17c0.647,0.475,1.162,1.043,1.545,1.703
		s0.574,1.426,0.574,2.297s-0.185,1.67-0.555,2.396c-0.369,0.727-0.878,1.346-1.524,1.859c-0.647,0.516-1.406,0.91-2.277,1.188
		c-0.871,0.277-1.798,0.416-2.774,0.416c-1.664,0-3.123-0.383-4.377-1.146s-2.093-1.82-2.515-3.168
		c-0.027-0.08-0.04-0.197-0.04-0.355c0-0.342,0.112-0.646,0.337-0.91c0.224-0.264,0.521-0.396,0.891-0.396
		c0.291,0,0.548,0.086,0.772,0.258c0.224,0.172,0.402,0.402,0.535,0.693c0.343,0.846,0.931,1.484,1.763,1.92
		c0.831,0.436,1.709,0.654,2.634,0.654c1.293,0,2.396-0.297,3.307-0.891c0.911-0.598,1.367-1.436,1.367-2.518
		c0-0.871-0.449-1.609-1.347-2.219c-0.898-0.607-2.007-1.002-3.327-1.188c-1.901-0.264-3.439-0.784-4.614-1.562
		C53.634,19.419,53.047,18.29,53.047,16.812z"/>
	<path fill="#FFFFFF" d="M68.138,6.948c0-0.342,0.118-0.633,0.356-0.871c0.237-0.236,0.527-0.355,0.871-0.355
		c0.343,0,0.634,0.119,0.871,0.355c0.237,0.238,0.356,0.529,0.356,0.871v6.654c0.607-0.527,1.308-0.949,2.1-1.268
		c0.792-0.316,1.637-0.475,2.534-0.475c0.977,0,1.901,0.186,2.773,0.555c0.871,0.369,1.63,0.879,2.277,1.525
		c0.646,0.646,1.154,1.406,1.524,2.277c0.369,0.871,0.556,1.795,0.556,2.771V29.8c0,0.345-0.119,0.636-0.355,0.873
		c-0.236,0.236-0.527,0.354-0.871,0.354s-0.634-0.118-0.872-0.354C80.019,30.436,79.9,30.145,79.9,29.8V18.989
		c0-0.633-0.125-1.234-0.376-1.801c-0.251-0.568-0.588-1.063-1.01-1.486c-0.423-0.422-0.918-0.752-1.485-0.99
		c-0.568-0.238-1.169-0.355-1.803-0.355c-0.633,0-1.228,0.117-1.782,0.355c-0.554,0.238-1.043,0.555-1.465,0.951
		c-0.423,0.396-0.753,0.865-0.99,1.406c-0.238,0.541-0.37,1.115-0.396,1.723v11.01c0,0.371-0.112,0.669-0.337,0.894
		c-0.225,0.226-0.521,0.337-0.891,0.337c-0.344,0-0.628-0.119-0.852-0.355c-0.225-0.237-0.351-0.528-0.376-0.872L68.138,6.948
		L68.138,6.948z"/>
	<path fill="#F85D5D" d="M100.537,6.948c0-0.342,0.117-0.633,0.355-0.871c0.236-0.236,0.526-0.355,0.871-0.355
		c0.344,0,0.635,0.119,0.87,0.355c0.238,0.238,0.356,0.529,0.356,0.871v22.854c0,0.345-0.118,0.636-0.356,0.873
		c-0.235,0.236-0.526,0.354-0.87,0.354c-0.345,0-0.635-0.118-0.871-0.354c-0.238-0.237-0.355-0.528-0.355-0.873v-1.862l-0.355,0.357
		c-0.873,0.846-1.89,1.504-3.051,1.98c-1.162,0.475-2.391,0.713-3.684,0.713c-1.348,0-2.602-0.25-3.764-0.752
		s-2.172-1.189-3.029-2.062c-0.858-0.869-1.538-1.881-2.041-3.027c-0.502-1.148-0.752-2.371-0.752-3.664
		c0-1.32,0.258-2.562,0.771-3.725c0.517-1.162,1.209-2.18,2.08-3.051s1.881-1.564,3.03-2.08c1.146-0.514,2.355-0.771,3.624-0.771
		c1.479,0.053,2.823,0.43,4.04,1.129c1.214,0.699,2.257,1.525,3.129,2.475L100.537,6.948L100.537,6.948z M100.537,21.484
		c-0.055-1.028-0.271-1.979-0.654-2.853s-0.891-1.625-1.523-2.258c-0.635-0.635-1.373-1.129-2.219-1.486
		c-0.846-0.355-1.742-0.533-2.691-0.533c-0.979,0-1.901,0.184-2.772,0.555c-0.87,0.369-1.631,0.877-2.276,1.523
		c-0.646,0.648-1.155,1.406-1.524,2.277c-0.37,0.871-0.556,1.797-0.556,2.772c0,0.977,0.186,1.896,0.556,2.752
		c0.369,0.859,0.878,1.611,1.524,2.259c0.646,0.647,1.406,1.155,2.276,1.524c0.871,0.369,1.796,0.556,2.772,0.556
		s1.895-0.187,2.753-0.556c0.856-0.369,1.608-0.877,2.257-1.524c0.646-0.646,1.154-1.397,1.523-2.259
		C100.352,23.38,100.537,22.462,100.537,21.484z"/>
	<path fill="#FFFFFF" d="M114.122,11.86c1.269,0,2.476,0.258,3.625,0.771c1.147,0.516,2.157,1.209,3.028,2.08
		s1.563,1.889,2.08,3.051c0.516,1.162,0.771,2.402,0.771,3.722c0,1.293-0.251,2.517-0.752,3.664
		c-0.502,1.147-1.185,2.158-2.04,3.028c-0.857,0.871-1.868,1.56-3.029,2.062c-1.162,0.502-2.416,0.752-3.764,0.752
		c-1.318,0-2.557-0.238-3.703-0.714c-1.146-0.478-2.156-1.135-3.029-1.979c-0.871-0.846-1.559-1.848-2.061-3.01
		s-0.752-2.431-0.752-3.804c0-1.319,0.243-2.554,0.73-3.702c0.488-1.148,1.162-2.152,2.021-3.01c0.857-0.859,1.874-1.545,3.05-2.061
		C111.475,12.196,112.749,11.913,114.122,11.86z M114.043,14.356c-0.977,0-1.895,0.184-2.752,0.555
		c-0.857,0.369-1.611,0.877-2.258,1.523c-0.646,0.648-1.155,1.406-1.525,2.277c-0.369,0.871-0.555,1.797-0.555,2.773
		c0,0.976,0.186,1.895,0.555,2.752c0.37,0.859,0.879,1.611,1.525,2.258c0.646,0.648,1.398,1.156,2.258,1.525
		c0.857,0.369,1.775,0.555,2.752,0.555s1.9-0.186,2.771-0.555c0.873-0.369,1.631-0.877,2.276-1.525
		c0.646-0.646,1.155-1.398,1.525-2.258c0.368-0.857,0.555-1.775,0.555-2.752c0-0.979-0.187-1.902-0.555-2.773
		c-0.37-0.871-0.88-1.629-1.525-2.277c-0.646-0.646-1.403-1.154-2.276-1.523C115.943,14.54,115.02,14.356,114.043,14.356z"/>
	<path fill="#FFFFFF" d="M141.65,13.444c0-0.342,0.119-0.633,0.354-0.871c0.237-0.238,0.527-0.355,0.871-0.355
		c0.345,0,0.635,0.117,0.871,0.355c0.237,0.238,0.356,0.529,0.356,0.871v15.289c0,1.293-0.252,2.518-0.754,3.664
		c-0.502,1.148-1.183,2.158-2.039,3.029c-0.857,0.871-1.869,1.559-3.029,2.061c-1.162,0.5-2.416,0.754-3.764,0.754
		s-2.588-0.238-3.724-0.715c-1.136-0.475-2.14-1.135-3.01-1.979l-0.04-0.039c-0.237-0.236-0.355-0.516-0.355-0.832
		c0-0.344,0.125-0.641,0.375-0.891c0.252-0.252,0.549-0.377,0.894-0.377c0.343,0,0.618,0.104,0.831,0.314
		c0.658,0.66,1.412,1.176,2.258,1.545c0.845,0.369,1.771,0.557,2.771,0.557c0.978,0,1.9-0.188,2.772-0.557
		c0.871-0.369,1.63-0.879,2.276-1.523c0.646-0.645,1.154-1.396,1.523-2.26c0.369-0.855,0.557-1.773,0.557-2.752v-0.871
		c-0.871,0.979-1.922,1.75-3.148,2.316c-1.229,0.568-2.555,0.852-3.98,0.852c-1.319,0-2.556-0.236-3.703-0.713
		c-1.147-0.475-2.157-1.135-3.028-1.979c-0.872-0.844-1.56-1.85-2.062-3.01c-0.502-1.162-0.752-2.432-0.752-3.805
		c0-1.318,0.243-2.555,0.731-3.703c0.487-1.148,1.162-2.152,2.021-3.01c0.857-0.857,1.875-1.545,3.051-2.061
		c1.175-0.514,2.447-0.797,3.822-0.852c1.371,0.027,2.666,0.332,3.881,0.912s2.271,1.373,3.168,2.375v-1.741H141.65z M141.65,21.247
		c-0.055-0.951-0.271-1.842-0.653-2.674c-0.384-0.832-0.897-1.557-1.545-2.178s-1.394-1.109-2.238-1.465
		c-0.845-0.357-1.741-0.535-2.692-0.535c-0.978,0-1.896,0.186-2.752,0.555c-0.857,0.369-1.61,0.877-2.258,1.525
		c-0.648,0.646-1.156,1.404-1.525,2.277c-0.369,0.871-0.555,1.795-0.555,2.771c0,0.976,0.186,1.895,0.555,2.754
		c0.369,0.855,0.877,1.607,1.525,2.256c0.646,0.648,1.398,1.156,2.258,1.525c0.856,0.371,1.774,0.555,2.752,0.555
		c0.951,0,1.85-0.178,2.692-0.535c0.845-0.355,1.591-0.838,2.238-1.445c0.646-0.607,1.161-1.32,1.545-2.139
		c0.382-0.818,0.601-1.703,0.653-2.654V21.247z"/>
	<path fill="#F85D5D" d="M152.779,8.89c0-0.633-0.119-1.234-0.356-1.803c-0.237-0.566-0.567-1.063-0.989-1.484
		c-0.424-0.422-0.918-0.76-1.484-1.01c-0.568-0.252-1.17-0.377-1.805-0.377c-0.343,0-0.633-0.119-0.871-0.355
		c-0.235-0.238-0.354-0.529-0.354-0.871c0-0.344,0.125-0.635,0.376-0.873c0.251-0.236,0.588-0.355,1.012-0.355
		c0.949,0,1.848,0.197,2.692,0.594c0.845,0.396,1.584,0.918,2.218,1.564c0.635,0.648,1.131,1.4,1.485,2.258
		c0.354,0.858,0.532,1.762,0.532,2.713v8.277h2.221c0.343,0,0.634,0.119,0.871,0.357c0.236,0.238,0.355,0.529,0.355,0.871
		c0,0.344-0.119,0.635-0.355,0.871c-0.237,0.238-0.528,0.357-0.871,0.357h-2.221v8.237c0,0.978-0.185,1.9-0.553,2.771
		c-0.371,0.871-0.879,1.632-1.524,2.279c-0.647,0.646-1.399,1.153-2.259,1.522c-0.858,0.369-1.774,0.556-2.754,0.556
		c-0.342,0-0.633-0.119-0.871-0.355c-0.235-0.237-0.354-0.528-0.354-0.87c0-0.345,0.119-0.636,0.354-0.873
		c0.238-0.236,0.529-0.354,0.871-0.354c0.636,0,1.234-0.127,1.805-0.377c0.566-0.252,1.062-0.589,1.484-1.011
		s0.752-0.918,0.989-1.485c0.237-0.565,0.356-1.168,0.356-1.802V8.89L152.779,8.89z"/>
</g>
</svg>
