<?xml version="1.0" encoding="UTF-8" standalone="no"?>
<!DOCTYPE svg PUBLIC "-//W3C//DTD SVG 1.1//EN" "http://www.w3.org/Graphics/SVG/1.1/DTD/svg11.dtd">
<svg width="100%" height="100%" viewBox="0 0 400 400" version="1.1" xmlns="http://www.w3.org/2000/svg" xmlns:xlink="http://www.w3.org/1999/xlink" xml:space="preserve" style="fill-rule:evenodd;clip-rule:evenodd;stroke-linejoin:round;stroke-miterlimit:1.41421;">
    <path d="M389.916,15.889L389.92,15.893L389.928,15.885L389.982,15.929L389.991,15.937C390.166,16.099 390.325,16.276 390.445,16.484C390.539,16.646 390.603,16.821 390.67,16.996L390.665,16.998L390.694,17.056L390.704,17.084L390.779,17.201L390.79,17.212C390.815,17.263 390.846,17.311 390.874,17.36C390.931,17.459 390.987,17.557 391.039,17.658C391.164,17.899 391.278,18.146 391.38,18.398C391.532,18.773 391.655,19.159 391.754,19.551C391.814,19.79 391.868,20.031 391.905,20.274C391.957,20.607 391.982,20.944 391.992,21.281C391.998,21.475 391.999,21.669 392,21.863C392,21.899 391.994,21.935 391.991,21.971C391.985,22.05 391.979,22.13 391.972,22.21C391.963,22.306 391.948,22.401 391.935,22.496C391.913,22.699 391.895,22.902 391.873,23.105C391.86,23.219 391.845,23.331 391.829,23.445L391.836,23.573C391.806,23.57 391.835,23.633 391.835,23.664L391.774,24.228L325.454,330.441C325.251,331.235 324.995,332.022 324.633,332.76C324.461,333.112 324.257,333.449 324.04,333.775C323.32,334.854 322.389,335.792 321.311,336.515C320.506,337.055 319.623,337.477 318.696,337.761C317.385,338.164 315.985,338.291 314.624,338.12C313.851,338.024 313.091,337.837 312.362,337.562C312.006,337.427 311.66,337.268 311.319,337.098C282.644,322.118 254.077,306.931 225.456,291.848C225.206,291.772 224.965,291.647 224.705,291.619C223.99,291.54 223.829,291.726 223.217,292.026L222.688,292.606L219.203,298.27L215.717,303.932C201.765,326.584 187.791,349.222 173.885,371.901C171.572,375.676 169.261,379.451 166.952,383.228C166.72,383.59 166.475,383.943 166.203,384.275C165.556,385.063 164.787,385.75 163.929,386.301C163.171,386.787 162.345,387.167 161.483,387.429C160.032,387.868 158.479,387.967 156.983,387.716C155.94,387.54 154.927,387.196 153.994,386.699C153.161,386.255 152.392,385.693 151.717,385.034C150.846,384.185 150.133,383.175 149.624,382.07C149.213,381.177 148.937,380.221 148.809,379.246C148.754,378.819 148.731,378.391 148.726,377.961L148.726,253.189C148.579,252.42 148.576,252.411 148.156,251.751L147.519,251.288C143.329,249.319 139.137,247.351 134.945,245.385C130.753,243.42 126.56,241.457 122.367,239.494C88.824,223.805 55.253,208.174 21.822,192.248C19.043,190.923 16.265,189.596 13.488,188.268C13.358,188.202 13.227,188.137 13.099,188.066C12.453,187.705 11.85,187.275 11.304,186.775C10.509,186.048 9.835,185.19 9.302,184.255C9.087,183.877 8.89,183.489 8.727,183.086C8.198,181.784 7.953,180.367 8.008,178.964C8.051,177.847 8.285,176.738 8.696,175.7C9.101,174.677 9.677,173.723 10.394,172.889C11.071,172.101 11.874,171.424 12.763,170.887C13.151,170.653 13.555,170.452 13.968,170.268L378.025,12.884L378.305,12.782L378.329,12.774L378.44,12.745C378.495,12.732 378.551,12.721 378.606,12.71C378.689,12.695 378.689,12.695 378.776,12.681C378.811,12.676 378.848,12.673 378.883,12.666C378.993,12.642 379.102,12.615 379.211,12.589L379.307,12.558C379.655,12.451 380.006,12.356 380.361,12.279C380.475,12.254 380.589,12.231 380.704,12.211C380.762,12.2 380.827,12.184 380.886,12.18C381.018,12.169 381.15,12.16 381.283,12.15C381.711,12.149 382.139,12.148 382.567,12.151L382.68,12.155C383.06,12.173 383.435,12.216 383.81,12.274C384.009,12.304 384.209,12.336 384.406,12.38C384.585,12.421 384.762,12.473 384.937,12.531C385.107,12.587 385.275,12.648 385.442,12.713C385.496,12.734 385.555,12.744 385.603,12.776C385.602,12.779 385.608,12.778 385.61,12.779C385.622,12.785 385.633,12.791 385.644,12.797L385.685,12.809L385.686,12.809L385.709,12.816L385.726,12.822L385.729,12.823L385.777,12.837C385.778,12.838 385.779,12.838 385.78,12.838L385.777,12.837L385.769,12.834C385.762,12.832 385.779,12.836 385.781,12.836L385.78,12.838C385.853,12.86 385.925,12.884 385.997,12.91C386.187,12.982 386.376,13.058 386.565,13.132L386.53,13.12L386.935,13.3L387.145,13.514L387.499,13.742L387.506,13.744L388.482,14.476C388.761,14.703 389.031,14.942 389.283,15.199C389.395,15.313 389.505,15.431 389.612,15.55C389.662,15.606 389.71,15.663 389.763,15.716L389.773,15.735C389.791,15.757 389.806,15.774 389.82,15.79L389.82,15.791C389.83,15.803 389.83,15.803 389.839,15.814C389.864,15.834 389.891,15.887 389.916,15.889ZM171.582,263.485L204.219,280.68L204.878,281.223L205.266,281.984L205.319,282.836L205.028,283.639L172.391,336.585L171.766,337.232L170.928,337.558L170.031,337.503L169.238,337.079L168.696,336.361L168.503,335.483L168.503,265.343L168.678,264.504L169.174,263.804L169.908,263.361L170.758,263.249C171.033,263.327 171.308,263.406 171.582,263.485ZM210.529,316.358L206.207,323.371L211.975,314.011L210.529,316.358ZM362.669,57.569L363.344,58.153L363.716,58.964L363.717,59.856L309.518,310.718C309.419,310.954 309.362,311.213 309.221,311.427C309.08,311.642 308.896,311.833 308.688,311.982C308.263,312.286 307.741,312.42 307.223,312.36C306.968,312.33 306.733,312.208 306.488,312.133L177.728,244.385C177.524,244.223 177.286,244.096 177.116,243.899C176.946,243.702 176.811,243.468 176.724,243.223C176.548,242.722 176.568,242.174 176.78,241.688C176.884,241.449 177.073,241.257 177.22,241.042L360.179,57.929L360.929,57.446L361.813,57.318C362.098,57.402 362.384,57.485 362.669,57.569ZM224.477,293.706C221.457,298.616 218.435,303.525 215.411,308.432C218.434,303.524 221.456,298.615 224.477,293.706ZM329.96,56.104L330.649,56.555L331.112,57.236L331.277,58.043L331.119,58.852L330.662,59.537L157.664,232.535L156.952,233.002L156.113,233.149L155.285,232.95L46.327,181.658C46.112,181.501 45.864,181.382 45.683,181.187C45.502,180.992 45.356,180.758 45.261,180.51C45.067,180.004 45.076,179.442 45.286,178.943C45.389,178.698 45.543,178.469 45.73,178.28C45.917,178.091 46.17,177.98 46.389,177.83L328.345,56.124L329.15,55.952C329.42,56.003 329.69,56.053 329.96,56.104ZM390.67,16.996C390.691,17.05 390.691,17.05 390.716,17.102L390.722,17.11L390.735,17.102L390.68,16.99C390.677,16.992 390.673,16.994 390.67,16.996ZM389.82,15.79L389.829,15.783L389.927,15.881L389.93,15.883C389.925,15.888 389.92,15.889 389.916,15.889C389.873,15.847 389.849,15.822 389.82,15.79ZM385.709,12.816L385.685,12.809C385.675,12.805 385.687,12.809 385.697,12.811C385.703,12.788 385.792,12.839 385.768,12.833L385.729,12.823L385.709,12.816ZM385.61,12.779C385.633,12.788 385.656,12.797 385.679,12.806L385.697,12.811L385.701,12.797C385.673,12.792 385.646,12.788 385.618,12.782C385.615,12.781 385.607,12.778 385.61,12.779ZM385.603,12.776C385.606,12.778 385.611,12.779 385.607,12.778C385.608,12.776 385.603,12.775 385.603,12.776Z" style="fill:white;"/>
</svg>
