<?xml version="1.0" encoding="UTF-8" standalone="no"?>
<!DOCTYPE svg PUBLIC "-//W3C//DTD SVG 1.1//EN" "http://www.w3.org/Graphics/SVG/1.1/DTD/svg11.dtd">
<svg width="100%" height="100%" viewBox="0 0 400 400" version="1.1" xmlns="http://www.w3.org/2000/svg" xmlns:xlink="http://www.w3.org/1999/xlink" xml:space="preserve" style="fill-rule:evenodd;clip-rule:evenodd;stroke-linejoin:round;stroke-miterlimit:1.41421;">
    <g transform="matrix(1.0505,0,0,1,-7.67389,145.035)">
        <path d="M354.57,45.455C357.006,46.696 357.901,46.79 359.57,49.088C360.183,49.931 360.668,50.883 360.99,51.875C361.643,53.884 361.643,56.047 360.99,58.056C360.668,59.047 360.183,60 359.57,60.843C358.957,61.687 358.201,62.443 357.358,63.056C355.061,64.725 354.18,64.538 351.48,64.965L39.443,64.965C36.742,64.538 35.862,64.725 33.565,63.056C32.721,62.443 31.966,61.687 31.353,60.843C30.111,59.135 29.443,57.077 29.443,54.965C29.443,53.923 29.61,52.867 29.932,51.875C30.255,50.883 30.74,49.931 31.353,49.088C31.966,48.244 32.721,47.488 33.565,46.875C35.862,45.206 36.742,45.393 39.443,44.965L351.48,44.965C352.51,45.129 353.54,45.292 354.57,45.455Z" style="fill:rgb(255,118,113);fill-rule:nonzero;"/>
    </g>
    <g transform="matrix(1.0505,0,0,1,-7.67389,25.0346)">
        <path d="M354.57,45.455C357.006,46.696 357.901,46.79 359.57,49.088C360.183,49.931 360.668,50.883 360.99,51.875C361.643,53.884 361.643,56.047 360.99,58.056C360.668,59.047 360.183,60 359.57,60.843C358.957,61.687 358.201,62.443 357.358,63.056C355.061,64.725 354.18,64.538 351.48,64.965L39.443,64.965C36.742,64.538 35.862,64.725 33.565,63.056C32.721,62.443 31.966,61.687 31.353,60.843C30.111,59.135 29.443,57.077 29.443,54.965C29.443,53.923 29.61,52.867 29.932,51.875C30.255,50.883 30.74,49.931 31.353,49.088C31.966,48.244 32.721,47.488 33.565,46.875C35.862,45.206 36.742,45.393 39.443,44.965L351.48,44.965C352.51,45.129 353.54,45.292 354.57,45.455Z" style="fill:rgb(255,118,113);fill-rule:nonzero;"/>
    </g>
    <g transform="matrix(1.0505,0,0,1,-7.67389,265.035)">
        <path d="M354.57,45.455C357.006,46.696 357.901,46.79 359.57,49.088C360.183,49.931 360.668,50.883 360.99,51.875C361.643,53.884 361.643,56.047 360.99,58.056C360.668,59.047 360.183,60 359.57,60.843C358.957,61.687 358.201,62.443 357.358,63.056C355.061,64.725 354.18,64.538 351.48,64.965L39.443,64.965C36.742,64.538 35.862,64.725 33.565,63.056C32.721,62.443 31.966,61.687 31.353,60.843C30.111,59.135 29.443,57.077 29.443,54.965C29.443,53.923 29.61,52.867 29.932,51.875C30.255,50.883 30.74,49.931 31.353,49.088C31.966,48.244 32.721,47.488 33.565,46.875C35.862,45.206 36.742,45.393 39.443,44.965L351.48,44.965C352.51,45.129 353.54,45.292 354.57,45.455Z" style="fill:rgb(255,118,113);fill-rule:nonzero;"/>
    </g>
</svg>
