<?xml version="1.0" encoding="UTF-8" standalone="no"?>
<!DOCTYPE svg PUBLIC "-//W3C//DTD SVG 1.1//EN" "http://www.w3.org/Graphics/SVG/1.1/DTD/svg11.dtd">
<svg width="100%" height="100%" viewBox="0 0 400 400" version="1.1" xmlns="http://www.w3.org/2000/svg" xmlns:xlink="http://www.w3.org/1999/xlink" xml:space="preserve" style="fill-rule:evenodd;clip-rule:evenodd;stroke-linejoin:round;stroke-miterlimit:1.41421;">
    <g transform="matrix(0.810742,0,0,0.810742,3.59785,3.59785)">
        <g transform="matrix(1.01227,0,0,1.01227,-2.97121,-2.97121)">
            <path d="M449.9,178.2L441.8,178.2C430.1,147.6 410.2,119.9 383.5,97.5C383.5,97.4 383.5,97.4 383.5,97.3C379.5,83.4 382.5,68.5 392.2,53C397.2,45 397.5,35.3 392.9,27.1C388.4,19 379.9,13.9 370.7,13.9C369.6,13.9 368.5,14 367.5,14.1C330.4,18.7 308.2,35.6 295.4,51.3C273.2,45.2 250.2,42.1 226.8,42.1C166.5,42.1 109.8,62.7 67,100.1C23.8,137.9 0,188.3 0,242C0,255.9 1.6,269.8 4.9,283.4C4.9,283.6 5,283.9 5.1,284.1C5.1,284.1 5.2,284.3 5.3,284.7C8.7,298.4 13.7,311.8 20.2,324.5C30.9,347.8 43.8,367.2 58.3,382.2C78.9,403.4 82.4,430.2 82.9,441L82.9,447.3C82.9,447.8 82.9,448.3 83,448.7C84.2,461 94.7,470.5 107.1,470.5L181.6,470.5C194.9,470.5 205.8,459.6 205.8,446.3L205.8,441.3C217.4,442.2 229.1,442.4 240.8,441.8L240.8,446.4C240.8,459.7 251.7,470.6 265,470.6L339.5,470.6C352.8,470.6 363.7,459.7 363.7,446.4L363.7,428.2C363.8,423.9 365.5,403.5 384.8,385.9C385.7,385.1 386.7,384.3 387.6,383.5C387.7,383.4 387.7,383.4 387.8,383.3C388,383.1 388.3,382.9 388.5,382.7C413.5,360.3 432.2,333 443,303.2L450,303.2C469,303.2 484.5,287.7 484.5,268.7L484.5,213.1C484.4,193.7 468.9,178.2 449.9,178.2ZM460.4,268.3C460.4,274.1 455.7,278.8 449.9,278.8L434.3,278.8C429,278.8 424.4,282.2 422.8,287.3C413.9,316.3 396.3,343.1 372,364.8C371.9,364.9 371.9,364.9 371.8,365L371.7,365.1C370.8,365.9 369.9,366.7 369,367.5C368.9,367.6 368.8,367.7 368.7,367.7C342.5,391.5 339.8,419.5 339.6,427.5L339.6,446.2C339.6,446.3 339.5,446.4 339.4,446.4L264.9,446.4C264.8,446.4 264.7,446.3 264.7,446.2L264.7,428.7C264.7,425.3 263.3,422.1 260.7,419.8C258.5,417.8 255.6,416.7 252.7,416.7C252.3,416.7 251.9,416.7 251.4,416.8C243.2,417.7 234.9,418.1 226.7,418.1C216.2,418.1 205.6,417.4 195.3,416C191.9,415.5 188.4,416.6 185.8,418.9C183.2,421.2 181.7,424.5 181.7,427.9L181.7,446.2C181.7,446.3 181.6,446.4 181.5,446.4L107,446.4C106.9,446.4 106.8,446.3 106.8,446.2L106.8,440.6C106.8,440.4 106.8,440.2 106.8,440.1C106.2,426.7 102,392.7 75.4,365.4C62.7,352.3 51.3,335.1 41.6,314.2C41.5,314 41.5,313.9 41.4,313.8C35.7,302.6 31.2,290.9 28.3,278.9C28.3,278.8 28.2,278.7 28.2,278.6C28.2,278.5 28.2,278.5 28.2,278.4C25.3,266.5 23.9,254.3 23.9,242.2C23.9,145.2 114.9,66.2 226.7,66.2C250.6,66.2 273.9,69.8 296.1,76.8C301.2,78.4 306.7,76.5 309.7,72.1C318.6,58.9 336.3,42.4 370.3,38.1C371.1,38 371.6,38.5 371.8,38.9C372.2,39.6 371.9,40.2 371.7,40.4C358.4,61.6 354.5,83.6 360.3,104C360.3,104.1 360.4,104.3 360.4,104.4C360.5,107.9 362.1,111.2 364.9,113.4C392.1,135.4 411.8,163.3 421.9,194.1C423.5,199 428.1,202.4 433.3,202.4L449.8,202.4C455.6,202.4 460.3,207.1 460.3,212.9L460.3,268.3L460.4,268.3Z" style="fill:white;fill-rule:nonzero;"/>
        </g>
        <g transform="matrix(1.01227,0,0,1.01227,12.9213,-2.86999)">
            <path d="M239.8,230L213,230C203.4,230 195.6,222.2 195.6,212.6C195.6,203 203.4,195.2 213,195.2L260.4,195.2C267,195.2 272.4,189.8 272.4,183.2C272.4,176.6 267,171.2 260.4,171.2L238.5,171.2L238.5,155.1C238.5,148.5 233.1,143.1 226.5,143.1C219.9,143.1 214.5,148.5 214.5,155.1L214.5,171.2L213.1,171.2C190.3,171.2 171.7,189.8 171.7,212.6C171.7,235.4 190.3,254 213.1,254L239.9,254C249.5,254 257.3,261.8 257.3,271.4C257.3,281 249.5,288.8 239.9,288.8L191.7,288.8C185.1,288.8 179.7,294.2 179.7,300.8C179.7,307.4 185.1,312.8 191.7,312.8L214.5,312.8L214.5,329.2C214.5,335.8 219.9,341.2 226.5,341.2C233.1,341.2 238.5,335.8 238.5,329.2L238.5,312.8L240.5,312.8C263.1,312.5 281.4,294 281.4,271.4C281.2,248.6 262.6,230 239.8,230Z" style="fill:white;fill-rule:nonzero;"/>
        </g>
    </g>
</svg>
